<svg xmlns="http://www.w3.org/2000/svg" viewBox="0 0 64 64" role="img" aria-labelledby="title desc">
  <title id="title">TIP favicon</title>
  <desc id="desc">A stylized T-shaped pipe fitting on a dark green rounded square.</desc>
  <defs>
    <linearGradient id="bg" x1="10" y1="8" x2="54" y2="56" gradientUnits="userSpaceOnUse">
      <stop offset="0" stop-color="#2f633e"/>
      <stop offset="1" stop-color="#132f1e"/>
    </linearGradient>
    <linearGradient id="pipe" x1="18" y1="16" x2="48" y2="50" gradientUnits="userSpaceOnUse">
      <stop offset="0" stop-color="#f6faf6"/>
      <stop offset="1" stop-color="#bad3b8"/>
    </linearGradient>
    <linearGradient id="shine" x1="16" y1="12" x2="44" y2="32" gradientUnits="userSpaceOnUse">
      <stop offset="0" stop-color="#ffffff" stop-opacity="0.55"/>
      <stop offset="1" stop-color="#ffffff" stop-opacity="0"/>
    </linearGradient>
  </defs>
  <rect width="64" height="64" rx="16" fill="url(#bg)"/>
  <path d="M44 4C51.7 8.8 57.7 16.2 60 25v35H31c2.1-14.5 8.7-31.4 13-56Z" fill="#4b7a53" fill-opacity="0.16"/>
  <g fill="url(#pipe)">
    <rect x="13" y="16" width="38" height="12" rx="6"/>
    <rect x="26" y="22" width="12" height="27" rx="6"/>
    <circle cx="18" cy="22" r="8"/>
    <circle cx="46" cy="22" r="8"/>
    <circle cx="32" cy="44" r="8"/>
  </g>
  <path d="M19 17.5h24a4.5 4.5 0 0 1 0 9H31.5a5.5 5.5 0 0 0-5.5 5.5V42a4.5 4.5 0 0 0 9 0V30.5a4 4 0 0 1 4-4H19a4.5 4.5 0 0 1 0-9Z" fill="url(#shine)"/>
  <rect x="8" y="8" width="48" height="48" rx="12" fill="none" stroke="#edf5ed" stroke-opacity="0.16"/>
</svg>